<svg width="52" height="52" viewBox="0 0 52 52" fill="none" xmlns="http://www.w3.org/2000/svg">
<path d="M48.75 39H42.25V32.5H39V39H32.5V42.25H39V48.75H42.25V42.25H48.75V39Z" fill="#FA786B"/>
<path d="M26 45.5001H13V6.50006H26V16.2501C26.0026 17.1112 26.3458 17.9364 26.9547 18.5453C27.5637 19.1543 28.3888 19.4975 29.25 19.5001H39V26.0001H42.25V16.2501C42.2557 16.0365 42.2151 15.8242 42.131 15.6279C42.0468 15.4315 41.9211 15.2557 41.7625 15.1126L30.3875 3.73756C30.2444 3.57887 30.0686 3.45311 29.8723 3.36894C29.6759 3.28478 29.4636 3.24422 29.25 3.25006H13C12.1388 3.25264 11.3137 3.59587 10.7047 4.20481C10.0958 4.81375 9.75257 5.6389 9.75 6.50006V45.5001C9.75257 46.3612 10.0958 47.1864 10.7047 47.7953C11.3137 48.4043 12.1388 48.7475 13 48.7501H26V45.5001ZM29.25 7.15006L38.35 16.2501H29.25V7.15006Z" fill="#FA786B"/>
</svg>
