<svg width="22" height="22" viewBox="0 0 22 22" fill="none" xmlns="http://www.w3.org/2000/svg">
<path d="M11.0666 6.33334C8.46657 6.33334 6.3999 8.40001 6.3999 11C6.3999 13.6 8.46657 15.6667 11.0666 15.6667C13.6666 15.6667 15.7332 13.6 15.7332 11C15.7332 8.40001 13.6666 6.33334 11.0666 6.33334ZM11.0666 14.3333C9.1999 14.3333 7.73324 12.8667 7.73324 11C7.73324 9.13334 9.1999 7.66668 11.0666 7.66668C12.9332 7.66668 14.3999 9.13334 14.3999 11C14.3999 12.8667 12.9332 14.3333 11.0666 14.3333Z" fill="black" fill-opacity="0.5"/>
<path d="M20.8666 8.80001L18.9999 8.20001L18.5999 7.20001L19.5333 5.46668C19.7332 5.06668 19.6666 4.53334 19.3333 4.20001L17.7333 2.60001C17.3999 2.26668 16.8666 2.20001 16.4666 2.40001L14.7333 3.33334L13.7333 2.93334L13.1333 1.06668C12.9999 0.666677 12.5999 0.333344 12.1333 0.333344H9.86658C9.39992 0.333344 8.99992 0.666677 8.93325 1.13334L8.33325 3.00001C7.93325 3.06668 7.59992 3.20001 7.26658 3.40001L5.53325 2.46668C5.13325 2.26668 4.59992 2.33334 4.26659 2.66668L2.66659 4.26668C2.33325 4.60001 2.26658 5.13334 2.46658 5.53334L3.33325 7.20001C3.19992 7.53334 3.06659 7.93334 2.93325 8.26668L1.06659 8.86668C0.666585 9.00001 0.333252 9.40001 0.333252 9.86668V12.1333C0.333252 12.6 0.666585 13 1.13325 13.1333L2.99992 13.7333L3.39992 14.7333L2.46658 16.4667C2.26658 16.8667 2.33325 17.4 2.66659 17.7333L4.26659 19.3333C4.59992 19.6667 5.13325 19.7333 5.53325 19.5333L7.26658 18.6L8.26658 19L8.86658 20.9333C8.99992 21.3333 9.39992 21.6667 9.86658 21.6667H12.1333C12.5999 21.6667 12.9999 21.3333 13.1333 20.9333L13.7333 19L14.7333 18.6L16.4666 19.5333C16.8666 19.7333 17.3999 19.6667 17.7333 19.3333L19.3333 17.7333C19.6666 17.4 19.7332 16.8667 19.5333 16.4667L18.5999 14.7333L18.9999 13.7333L20.9333 13.1333C21.3333 13 21.6666 12.6 21.6666 12.1333V9.86668C21.6666 9.40001 21.3333 8.93334 20.8666 8.80001ZM20.3333 11.9333L17.9333 12.6667L17.8666 13L17.2666 14.4L17.0666 14.7333L18.2666 16.9333L16.9333 18.2667L14.7333 17.0667L14.3999 17.2667C13.9333 17.5333 13.4666 17.7333 12.9999 17.8667L12.6666 17.9333L11.9333 20.3333H10.0666L9.33325 17.9333L8.99992 17.8667L7.59992 17.2667L7.26658 17.0667L5.06659 18.2667L3.73325 16.9333L4.93325 14.7333L4.73325 14.4C4.46659 13.9333 4.26658 13.4667 4.13325 13L4.06659 12.6667L1.66659 11.9333V10.0667L3.93325 9.40001L4.06659 9.06668C4.19992 8.53334 4.39992 8.06668 4.66658 7.60001L4.86659 7.26668L3.73325 5.06668L5.06659 3.73334L7.19992 4.93334L7.53325 4.73334C7.99992 4.46668 8.46659 4.26668 8.99992 4.13334L9.33325 4.00001L10.0666 1.66668H11.9333L12.6666 4.00001L12.9999 4.13334C13.4666 4.26668 13.9333 4.46668 14.3999 4.73334L14.7333 4.93334L16.9333 3.73334L18.2666 5.06668L17.0666 7.26668L17.2666 7.60001C17.5333 8.06668 17.7332 8.53334 17.8666 9.00001L17.9333 9.33334L20.3333 10.0667V11.9333Z" fill="black" fill-opacity="0.5"/>
</svg>
